<?xml version="1.0" standalone="no"?>
<!DOCTYPE svg PUBLIC "-//W3C//DTD SVG 20010904//EN"
 "http://www.w3.org/TR/2001/REC-SVG-20010904/DTD/svg10.dtd">
<svg version="1.0" xmlns="http://www.w3.org/2000/svg"
 width="2000.000000pt" height="2000.000000pt" viewBox="0 0 2000.000000 2000.000000"
 preserveAspectRatio="xMidYMid meet">

<g transform="translate(0.000000,2000.000000) scale(0.100000,-0.100000)"
fill="#cc2229" stroke="none">
<path d="M14151 11724 c-138 -18 -248 -52 -311 -95 -74 -50 -80 -67 -80 -215
0 -126 0 -129 26 -149 25 -20 27 -27 26 -96 -1 -76 -14 -129 -31 -129 -5 0
-12 6 -15 13 -10 25 1 -410 12 -453 35 -136 44 -336 48 -1100 5 -824 6 -842
62 -925 37 -53 81 -77 142 -77 54 0 117 27 163 70 l27 26 0 1393 0 1393 26 10
c35 14 77 12 98 -3 16 -12 17 -89 17 -1398 l-1 -1385 27 -31 c92 -102 248
-100 309 5 54 92 56 112 64 612 6 428 9 479 33 635 24 161 26 200 32 716 7
519 5 616 -15 604 -9 -6 -30 25 -30 44 0 6 10 21 23 34 21 21 22 30 22 169 0
167 -4 177 -88 235 -131 88 -361 127 -586 97z m326 -129 c27 -8 79 -34 114
-57 51 -35 69 -54 93 -102 30 -57 31 -62 40 -280 17 -386 13 -516 -14 -516
-17 0 -27 41 -45 173 -13 102 -14 138 -4 192 6 36 9 97 7 135 -3 59 -8 74 -34
106 -38 47 -177 128 -268 156 -60 18 -75 19 -120 9 -62 -14 -222 -94 -272
-135 -71 -58 -88 -136 -58 -267 13 -59 14 -88 5 -188 -11 -122 -17 -151 -31
-151 -25 0 -35 152 -21 320 9 104 9 155 0 222 -14 107 -1 187 42 252 33 49
118 106 194 129 69 21 303 22 372 2z m-549 -2103 c3 -595 0 -682 -28 -682 -5
0 -12 11 -16 24 -8 33 2 1213 11 1254 6 25 10 31 19 22 8 -8 12 -185 14 -618z
m770 -388 c4 -242 1 -294 -18 -294 -24 0 -32 90 -28 305 5 223 11 266 32 245
7 -7 12 -93 14 -256z"/>
<path d="M8968 11685 c-61 -22 -124 -71 -143 -110 -9 -20 -15 -38 -13 -40 1
-1 62 -10 133 -18 116 -14 144 -14 260 0 72 8 132 17 135 19 2 3 -4 22 -15 42
-22 41 -97 96 -153 112 -51 14 -160 11 -204 -5z"/>
<path d="M2374 11058 c-51 -17 -126 -80 -151 -127 -20 -38 -23 -59 -23 -149
l0 -106 32 -26 31 -26 7 -345 c8 -411 14 -436 125 -562 90 -101 290 -118 615
-52 119 24 136 25 522 25 390 0 401 -1 526 -26 145 -30 207 -27 287 10 65 31
81 44 187 151 l89 90 -6 67 c-6 78 6 98 60 98 56 0 80 -17 99 -71 18 -49 18
-49 62 -49 65 0 114 25 159 81 45 57 77 75 154 85 61 8 78 30 67 87 -10 52
-39 83 -119 122 -83 40 -171 60 -335 76 -98 10 -134 9 -222 -4 -136 -20 -221
-48 -291 -93 -82 -53 -93 -77 -97 -212 -3 -64 0 -118 5 -123 6 -6 24 12 48 48
68 104 114 150 192 197 99 59 150 69 309 64 149 -5 198 -21 252 -82 35 -40 40
-67 17 -86 -11 -9 -37 -9 -125 4 -123 18 -166 15 -260 -22 -76 -29 -113 -55
-193 -134 -101 -101 -267 -198 -337 -198 -43 0 -44 13 -5 61 l35 44 -533 5
c-593 7 -580 5 -693 78 -104 68 -169 163 -194 287 -7 32 -19 70 -28 83 -21 32
-11 142 21 213 35 81 218 293 278 324 58 31 206 56 439 75 212 17 1261 89
1529 104 139 8 255 17 257 19 10 9 -2763 5 -2792 -5z m421 -124 c45 -21 56
-51 28 -76 -10 -9 -103 -59 -206 -111 -103 -53 -195 -101 -204 -109 -54 -45
-71 -189 -30 -268 12 -24 31 -50 43 -57 18 -12 24 -11 45 5 54 42 110 40 127
-5 6 -16 18 -53 26 -83 33 -118 138 -249 286 -356 149 -107 110 -139 -100 -83
-41 11 -131 47 -200 79 -72 34 -158 66 -203 75 -58 13 -80 22 -89 39 -9 15
-12 122 -12 396 0 371 0 375 23 420 32 62 57 88 116 117 77 40 92 43 205 40
80 -3 116 -8 145 -23z"/>
<path d="M7884 11055 c-121 -18 -214 -50 -282 -95 -79 -53 -92 -85 -92 -223
l0 -102 29 -17 c38 -21 44 -55 39 -192 -3 -85 -7 -108 -22 -125 -11 -12 -25
-21 -33 -21 -10 0 -13 -23 -13 -101 0 -128 -13 -173 -66 -226 -73 -73 -73 -73
-685 -73 -342 0 -556 4 -588 11 -69 15 -134 59 -166 113 -25 42 -73 225 -236
898 -18 76 -35 135 -37 133 -3 -2 -15 -91 -28 -197 -13 -106 -39 -314 -59
-462 -45 -342 -51 -406 -37 -406 22 0 71 -59 82 -100 6 -23 22 -60 36 -81 13
-21 24 -43 24 -48 0 -15 70 -63 121 -82 68 -26 166 -24 305 6 114 25 123 25
570 25 453 0 455 0 572 -26 76 -17 150 -27 212 -27 88 -2 102 1 190 37 106 42
235 118 250 145 6 11 8 187 7 446 -2 339 1 432 11 446 15 21 80 26 113 9 18
-10 19 -26 19 -499 0 -465 1 -491 20 -547 43 -123 50 -207 50 -583 1 -383 5
-422 54 -518 28 -57 65 -83 116 -83 36 0 98 57 130 119 49 96 49 96 56 1029 5
721 9 881 20 899 17 27 20 306 4 348 -32 84 -166 143 -385 170 -140 18 -191
18 -301 0z m341 -126 c73 -20 164 -77 200 -127 60 -84 79 -205 40 -258 -12
-18 -17 -15 -72 37 -62 59 -181 125 -276 155 -75 23 -133 12 -253 -48 -175
-87 -239 -182 -188 -280 21 -41 142 -158 163 -158 9 0 25 7 35 15 11 8 30 15
43 15 22 0 23 -4 23 -64 0 -84 -10 -107 -77 -183 -41 -48 -74 -73 -127 -100
-39 -19 -107 -57 -151 -83 -121 -73 -251 -110 -271 -79 -4 7 25 42 71 86 43
41 83 82 89 92 84 144 97 173 120 271 45 192 50 234 36 316 -21 123 -1 218 61
289 40 46 162 105 237 116 70 9 243 3 297 -12z m-2360 -860 c22 -11 74 -55
115 -97 42 -42 103 -101 138 -131 34 -29 62 -60 62 -69 0 -28 -107 -9 -221 41
-57 25 -130 53 -161 62 -32 9 -65 23 -73 31 -43 43 23 184 85 184 8 0 33 -9
55 -21z m2575 -934 c0 -185 -4 -296 -10 -300 -7 -4 -10 98 -10 300 0 202 3
304 10 300 6 -4 10 -115 10 -300z m-156 99 c11 -28 7 -424 -5 -445 -23 -44
-29 -1 -29 211 0 211 3 250 20 250 4 0 11 -7 14 -16z"/>
<path d="M9012 11056 c-61 -20 -103 -56 -137 -117 -29 -53 -29 -56 -30 -214 0
-134 3 -168 19 -210 18 -48 19 -90 21 -895 2 -909 2 -896 54 -998 27 -52 86
-109 121 -117 64 -14 127 52 163 173 19 62 20 98 22 482 2 425 7 495 50 701
22 110 22 1002 -1 1057 -45 109 -175 172 -282 138z m127 -265 c63 -45 73 -102
86 -481 6 -147 4 -169 -12 -199 -25 -48 -40 -49 -60 -4 -13 29 -18 78 -20 218
-4 184 -12 228 -43 245 -14 8 -25 2 -49 -25 -17 -19 -34 -35 -39 -35 -17 0
-52 98 -52 145 0 25 6 58 14 73 16 30 63 76 86 85 22 8 61 -1 89 -22z m-114
-458 c18 -143 10 -711 -11 -732 -43 -43 -75 418 -44 649 20 151 42 184 55 83z
m-15 -1444 c0 -49 -13 -66 -25 -29 -8 25 5 91 16 84 5 -3 9 -27 9 -55z m157 7
c-3 -7 -1 -18 5 -24 12 -12 1 -35 -13 -27 -12 8 -8 65 4 65 5 0 7 -6 4 -14z"/>
<path d="M9570 11059 c14 -6 52 -12 85 -15 33 -2 125 -9 205 -14 234 -17 615
-69 743 -101 208 -52 300 -96 329 -156 10 -22 26 -31 77 -44 68 -18 81 -29 81
-71 0 -23 6 -29 40 -38 l40 -11 -50 -50 c-49 -49 -136 -99 -174 -99 -16 0 -18
5 -13 35 l6 35 -635 0 c-701 0 -663 3 -722 -65 -57 -64 -59 -74 -61 -290 -2
-193 -1 -202 19 -225 12 -14 40 -50 61 -80 39 -56 105 -113 166 -144 41 -21
113 -20 158 1 33 16 39 16 103 0 123 -32 218 -46 444 -67 122 -11 322 -31 443
-44 313 -35 350 -38 345 -33 -3 3 -70 19 -150 36 -106 22 -181 32 -277 35
-141 5 -227 21 -202 37 8 5 30 9 49 10 l35 1 -30 9 c-16 5 -181 43 -365 84
-399 89 -401 90 -434 116 l-26 20 6 -30 c5 -22 3 -31 -7 -31 -15 0 -122 110
-115 118 3 3 26 6 51 6 42 1 45 3 45 29 0 43 24 91 59 118 17 13 50 44 74 68
67 69 120 101 195 116 85 16 652 29 702 15 79 -21 98 -24 165 -24 83 0 119 16
187 82 52 50 108 165 108 222 0 42 15 67 50 85 l30 16 0 169 c0 94 2 170 5
170 3 0 56 -11 117 -24 92 -19 134 -22 223 -19 151 6 688 -47 890 -88 255 -51
341 -85 384 -151 20 -32 32 -39 80 -49 31 -6 62 -16 69 -21 8 -7 12 -7 12 1 0
6 -22 33 -50 60 -55 53 -60 71 -30 101 44 44 162 13 220 -58 39 -48 63 -120
55 -166 -9 -44 -16 -50 -86 -70 -30 -8 -63 -24 -73 -34 -9 -11 -49 -34 -88
-52 -79 -37 -105 -33 -100 13 l3 26 -640 -2 c-727 -2 -663 6 -728 -91 -32 -46
-33 -52 -33 -147 l0 -99 41 -45 c41 -45 42 -46 35 -103 -6 -51 -3 -66 28 -140
43 -103 75 -146 129 -174 53 -27 111 -28 165 -4 42 19 42 19 160 -7 142 -32
1007 -130 1111 -126 25 1 -87 27 -744 173 -529 117 -533 119 -573 173 l-21 28
14 -49 c25 -82 6 -87 -68 -17 -29 26 -62 54 -74 60 -13 6 -23 18 -23 25 0 19
106 32 126 16 12 -11 13 -6 8 32 -8 58 17 113 60 135 17 8 56 39 86 68 103 97
129 102 540 109 276 4 313 3 385 -15 98 -23 126 -24 196 -3 43 13 66 29 116
81 34 35 75 88 90 116 16 29 43 61 61 72 l33 20 -3 120 c-3 99 -8 129 -26 170
-29 63 -64 100 -127 133 l-50 27 -1640 2 c-960 1 -1632 -2 -1620 -7 11 -5 54
-15 95 -22 130 -22 31 -21 -142 2 -178 23 -481 36 -438 19z m1610 -164 c61
-31 105 -112 94 -171 -4 -25 -13 -36 -30 -40 -28 -7 -49 0 -133 45 -80 44
-121 82 -121 113 0 27 33 63 65 71 28 7 95 -3 125 -18z m-344 -483 c-9 -11
-34 -24 -55 -30 -73 -22 -75 -12 -6 22 39 18 72 32 74 30 2 -2 -3 -12 -13 -22z
m-882 -32 c47 -18 31 -42 -76 -110 -126 -80 -166 -100 -195 -100 -64 0 13 141
102 187 62 33 123 41 169 23z m956 -6 c0 -8 -5 -12 -10 -9 -6 4 -8 11 -5 16 9
14 15 11 15 -7z m1170 -9 c17 -20 9 -28 -88 -94 -152 -102 -202 -119 -202 -71
0 55 63 138 125 166 42 18 149 18 165 -1z"/>
<path d="M15215 11058 c-44 -16 -107 -62 -143 -103 l-32 -36 0 -432 c0 -453 2
-476 47 -578 31 -70 102 -168 134 -185 16 -8 29 -18 29 -22 0 -5 19 -18 43
-29 123 -61 278 -58 411 9 l59 30 126 -20 c69 -11 151 -23 181 -26 134 -14
1248 -96 1365 -100 152 -6 141 -4 -200 49 -1486 229 -1394 213 -1480 258 -116
62 -221 204 -241 324 -3 23 -17 57 -30 75 -16 21 -24 45 -24 73 0 69 38 196
74 250 54 80 214 259 249 276 43 23 164 45 332 63 176 19 1104 91 1365 107
107 6 213 14 235 18 22 4 -525 8 -1215 8 -897 2 -1264 -1 -1285 -9z m390 -109
c78 -21 107 -58 69 -90 -9 -8 -109 -61 -222 -119 -204 -104 -208 -106 -252
-167 -25 -34 -48 -62 -52 -62 -13 -2 -40 100 -40 152 0 95 44 167 142 232 61
40 101 57 160 69 34 6 146 -2 195 -15z m-421 -614 c9 -14 36 -35 60 -47 l44
-21 30 22 c40 28 85 37 99 19 7 -7 21 -47 32 -88 28 -103 70 -180 157 -296 77
-102 94 -138 76 -156 -16 -16 -117 22 -234 88 -53 30 -132 66 -175 79 -55 17
-88 34 -108 55 l-30 31 0 142 c1 190 12 229 49 172z"/>
<path d="M6603 10506 c-81 -26 -163 -94 -163 -136 0 -22 12 -25 165 -40 90
-10 131 -9 228 3 65 9 121 18 125 21 14 15 -17 63 -63 98 -83 64 -194 84 -292
54z"/>
<path d="M16143 10500 c-126 -45 -185 -128 -105 -149 103 -28 215 -33 346 -17
71 9 131 18 134 20 10 10 -36 72 -76 103 -81 62 -200 79 -299 43z"/>
<path d="M3135 10501 c-50 -13 -132 -59 -154 -87 -51 -65 -47 -155 9 -209 l30
-29 0 32 c0 18 10 42 24 59 23 26 29 28 108 29 45 0 124 8 173 18 50 9 104 19
122 22 30 4 31 6 22 34 -33 92 -209 161 -334 131z"/>
<path d="M13348 9583 c7 -3 16 -2 19 1 4 3 -2 6 -13 5 -11 0 -14 -3 -6 -6z"/>
<path d="M17583 9553 c9 -2 23 -2 30 0 6 3 -1 5 -18 5 -16 0 -22 -2 -12 -5z"/>
</g>
</svg>
